<svg width="238" height="68" viewBox="0 0 238 68" fill="none" xmlns="http://www.w3.org/2000/svg">
<g clip-path="url(#clip0_0_1741)">
<path d="M16.8157 49.5711C16.9651 46.0029 14.1959 42.9826 10.6324 42.8292C7.06893 42.6758 4.05198 45.4551 3.90624 49.0269C3.74956 52.6024 6.51874 55.6228 10.0822 55.7762C13.6494 55.9222 16.6627 53.1502 16.8194 49.5711" fill="#FFDB43"/>
<path d="M17.3731 39.9841C18.5209 37.5262 17.4533 34.5971 14.9938 33.4504C12.527 32.3036 9.60482 33.3773 8.45707 35.8352C7.31296 38.3041 8.3842 41.2332 10.8437 42.3799C13.3068 43.5267 16.2253 42.4639 17.3731 39.9841Z" fill="#FFDB43"/>
<path d="M22.9987 38.1909C21.3918 38.7752 20.5611 40.5685 21.1477 42.1827C21.738 43.8006 23.5197 44.6333 25.1339 44.0453C26.748 43.4537 27.5751 41.6605 26.9848 40.0499C26.4018 38.4283 24.6092 37.5919 22.9987 38.1909ZM23.4432 39.4144C24.3905 39.0674 25.4217 39.5532 25.7751 40.4845C26.114 41.434 25.6257 42.4822 24.6893 42.8219C23.7456 43.1652 22.7145 42.6831 22.3647 41.7335C22.0149 40.7986 22.5031 39.7504 23.4432 39.4144Z" fill="#FFDB43"/>
<path d="M30.4064 41.6678C29.9254 42.7269 30.3772 43.9796 31.4339 44.4763C32.4833 44.9766 33.7403 44.5128 34.2359 43.4537C34.7278 42.3909 34.276 41.1345 33.2157 40.6488C32.1554 40.1558 30.9019 40.6086 30.4064 41.6678ZM31.208 42.0439C31.4958 41.4267 32.2282 41.1601 32.8404 41.445C33.4598 41.7372 33.7185 42.4676 33.4379 43.0848C33.1501 43.7057 32.4213 43.9686 31.8056 43.6838C31.1971 43.3952 30.9274 42.6721 31.208 42.0476" fill="#FFDB43"/>
<path d="M48.7739 51.4703C45.2177 51.8209 42.6198 54.9801 42.9695 58.5482C43.3193 62.1055 46.482 64.7022 50.031 64.3625C53.5762 64.0119 56.1778 60.8418 55.8317 57.2846C55.4782 53.7164 52.3265 51.1197 48.7703 51.4703" fill="#0DB14B"/>
<path d="M39.2896 50.6522C36.688 49.8597 33.9371 51.3242 33.15 53.9282C32.3667 56.5322 33.8314 59.286 36.4257 60.0748C39.0236 60.8674 41.7709 59.3992 42.5543 56.7952C43.345 54.1839 41.8839 51.4374 39.2896 50.6485" fill="#0DB14B"/>
<path d="M39.8618 41.9199C38.244 42.5079 37.4132 44.3047 38.0035 45.9117C38.5938 47.526 40.3755 48.366 41.9896 47.778C43.6038 47.1863 44.4345 45.3967 43.8443 43.7752C43.254 42.1646 41.4723 41.3355 39.8654 41.9199H39.8618ZM40.3136 43.136C41.2463 42.8 42.2921 43.2785 42.6273 44.2244C42.9771 45.163 42.4888 46.2112 41.5561 46.5545C40.6087 46.8978 39.5703 46.4157 39.2205 45.4734C38.8852 44.5275 39.3662 43.494 40.3136 43.1397" fill="#0DB14B"/>
<path d="M40.2809 35.3569C39.789 36.4197 40.2481 37.676 41.3048 38.1691C42.3542 38.6658 43.6112 38.2019 44.1068 37.1428C44.5987 36.0873 44.1395 34.831 43.0829 34.3343C42.0299 33.8449 40.7692 34.305 40.2809 35.3605V35.3569ZM41.0789 35.7404C41.374 35.1158 42.0918 34.8492 42.7112 35.1341C43.327 35.4263 43.5966 36.1567 43.3088 36.7776C43.0209 37.3984 42.2886 37.6651 41.6764 37.3765C41.0643 37.088 40.7837 36.3503 41.0789 35.744" fill="#0DB14B"/>
<path d="M25.1123 10.6498C25.269 7.07431 22.4998 4.05761 18.929 3.90057C15.3655 3.75083 12.3559 6.52283 12.2028 10.0947C12.0498 13.6738 14.8153 16.6869 18.3825 16.8403C21.946 16.9973 24.9629 14.218 25.1123 10.6461V10.6498ZM22.4233 10.5329C22.3358 12.6147 20.5832 14.2326 18.4954 14.1413C16.4185 14.0573 14.8117 12.2896 14.8991 10.2079C14.9939 8.12249 16.7428 6.50823 18.8234 6.59953C20.9039 6.68718 22.518 8.44753 22.4269 10.5329" fill="#2AA9E0"/>
<path d="M34.5094 15.0653C35.6571 12.5928 34.5895 9.67102 32.1301 8.51693C29.6706 7.37015 26.7484 8.44389 25.6006 10.9055C24.4492 13.3743 25.5241 16.3034 27.9799 17.4502C30.4394 18.597 33.3616 17.5305 34.5057 15.0653H34.5094ZM32.6511 14.1997C31.9843 15.635 30.2827 16.2596 28.8471 15.5876C27.4115 14.9229 26.7921 13.2136 27.4552 11.771C28.1257 10.3357 29.8273 9.7112 31.2665 10.3795C32.6948 11.0479 33.3215 12.7571 32.6511 14.1997Z" fill="#2AA9E0"/>
<path d="M26.0632 21.6064C24.4491 22.198 23.622 23.9876 24.2086 25.6092C24.7989 27.2235 26.5806 28.0525 28.1948 27.4718C29.8125 26.8765 30.6397 25.0906 30.0494 23.469C29.4664 21.8547 27.6737 21.0184 26.0632 21.6064ZM26.5078 22.8299C27.4442 22.4866 28.4863 22.976 28.8324 23.9182C29.1785 24.8605 28.6903 25.9014 27.7502 26.2483C26.8102 26.588 25.7717 26.1022 25.4256 25.1636C25.0794 24.2177 25.564 23.1805 26.5041 22.8299" fill="#2AA9E0"/>
<path d="M23.9462 32.2452C23.4579 33.3007 23.917 34.5643 24.9737 35.0537C26.0303 35.5431 27.2765 35.0903 27.772 34.0275C28.2639 32.9683 27.8084 31.7083 26.7518 31.2226C25.6988 30.7259 24.4417 31.1861 23.9498 32.2452H23.9462ZM24.7478 32.6141C25.0356 32.0005 25.7607 31.7339 26.3801 32.0188C26.9959 32.3109 27.2619 33.0414 26.9813 33.6586C26.6935 34.2722 25.9611 34.5424 25.3417 34.2576C24.7296 33.9654 24.4672 33.235 24.7478 32.6177" fill="#2AA9E0"/>
<path d="M57.7741 12.2239C54.207 12.0778 51.1901 14.8498 51.037 18.4253C50.8876 21.9898 53.6532 25.0175 57.2203 25.1709C60.7838 25.3243 63.7971 22.5523 63.9501 18.9731C64.1032 15.4013 61.3376 12.3846 57.7741 12.2239Z" fill="#ED0F69"/>
<path d="M57.0051 25.7041C54.5383 24.5537 51.6197 25.6274 50.4793 28.089C49.3315 30.5579 50.3955 33.4906 52.8513 34.6337C55.318 35.7805 58.2402 34.7177 59.3844 32.2452C60.5285 29.78 59.4609 26.8473 57.0051 25.7005" fill="#ED0F69"/>
<path d="M42.9187 25.3389C41.3046 25.9378 40.4738 27.7201 41.0641 29.338C41.6471 30.9596 43.4397 31.7886 45.0539 31.2006C46.6644 30.6126 47.4951 28.8231 46.9085 27.2051C46.3182 25.5909 44.5328 24.7582 42.9187 25.3389ZM43.3632 26.566C44.3033 26.2191 45.3454 26.7085 45.6842 27.6507C46.034 28.593 45.5421 29.6375 44.6021 29.9845C43.6656 30.3205 42.6163 29.8384 42.2774 28.8961C41.9386 27.9575 42.4232 26.913 43.3596 26.566" fill="#ED0F69"/>
<path d="M33.8167 25.9379C33.3321 26.9934 33.7876 28.2424 34.8406 28.7428C35.8973 29.2358 37.1507 28.7793 37.6426 27.7202C38.1308 26.6611 37.6754 25.4047 36.6187 24.908C35.5584 24.4186 34.305 24.8715 33.8167 25.9379ZM34.6147 26.3104C34.8989 25.6896 35.6313 25.423 36.247 25.7115C36.8628 26 37.1288 26.7268 36.8446 27.3477C36.5531 27.9649 35.8244 28.2351 35.2086 27.9466C34.5965 27.6544 34.3305 26.9277 34.6147 26.3104Z" fill="#ED0F69"/>
<path d="M11.2225 23.7356C8.81408 21.1024 4.71861 20.9198 2.09518 23.3485C-0.539188 25.7662 -0.714083 29.8603 1.69437 32.5009C4.12105 35.1304 8.1983 35.3057 10.829 32.8843C13.4634 30.4739 13.6383 26.3688 11.2225 23.7356Z" fill="#70747A"/>
<path d="M32.8148 57.1458C30.4027 54.5126 26.3109 54.3336 23.6802 56.7587C21.0495 59.1728 20.8782 63.2705 23.2939 65.9037C25.7061 68.5406 29.7906 68.7123 32.425 66.3018C35.052 63.8841 35.2306 59.7827 32.8185 57.1458H32.8148ZM30.829 58.9682C32.2391 60.5131 32.1407 62.8907 30.6031 64.3077C29.0728 65.7211 26.6898 65.6189 25.2797 64.0813C23.8696 62.5474 23.9753 60.1552 25.5129 58.7418C27.0433 57.3357 29.4262 57.438 30.829 58.9682Z" fill="#70747A"/>
<path d="M35.4238 1.70198C32.7931 4.12338 32.6219 8.21382 35.0376 10.858C37.4461 13.4912 41.5379 13.6629 44.165 11.2488C46.792 8.83104 46.9669 4.72964 44.5512 2.09641C42.1427 -0.529506 38.0545 -0.712115 35.4238 1.70563" fill="#70747A"/>
<path d="M57.0198 35.1121C54.3817 37.5335 54.2105 41.6276 56.6226 44.2681C59.0383 46.894 63.1229 47.073 65.7536 44.6553C68.3843 42.2375 68.5629 38.1398 66.1471 35.5029C63.7314 32.866 59.6432 32.698 57.0198 35.1121Z" fill="#70747A"/>
<path d="M20.9548 20.2039C20.0293 17.6511 17.2055 16.3363 14.6549 17.2639C12.1007 18.1989 10.7854 21.0293 11.7218 23.5822C12.6509 26.1387 15.4784 27.4572 18.0217 26.5259C20.5759 25.5946 21.8876 22.7605 20.9548 20.2076V20.2039ZM19.0273 20.9088C19.5739 22.4026 18.8051 24.0497 17.3185 24.5902C15.8391 25.138 14.1849 24.3638 13.6456 22.8773C13.0991 21.3873 13.8643 19.7401 15.3545 19.1959C16.8448 18.6591 18.4917 19.4187 19.0273 20.9088Z" fill="#70747A"/>
<path d="M26.4204 49.9838C25.4877 47.42 22.6675 46.1052 20.1206 47.0329C17.5664 47.9751 16.2546 50.8056 17.1838 53.3585C18.1129 55.915 20.9367 57.2261 23.4836 56.2985C26.0378 55.3598 27.3496 52.5367 26.4204 49.9838Z" fill="#70747A"/>
<path d="M44.3581 11.7856C41.8076 12.7169 40.4922 15.5437 41.425 18.1002C42.3578 20.6568 45.178 21.9715 47.7285 21.0402C50.2791 20.1089 51.5908 17.2785 50.6544 14.722C49.7325 12.1618 46.9087 10.847 44.3581 11.782" fill="#70747A"/>
<path d="M49.8199 41.5619C47.2693 42.4896 45.9612 45.3236 46.8831 47.8802C47.8195 50.433 50.6397 51.7551 53.1903 50.8129C55.7372 49.8852 57.0562 47.0657 56.1234 44.4982C55.1906 41.9417 52.3668 40.6233 49.8199 41.5619Z" fill="#70747A"/>
<path d="M206.84 25.1161C201.946 22.3368 195.726 24.0643 192.954 28.9728C190.184 33.8704 191.911 40.1083 196.809 42.8876C201.702 45.6633 207.918 43.9394 210.687 39.0309C213.453 34.1187 211.733 27.8954 206.836 25.1161H206.84ZM204.741 28.8194C207.601 30.4446 208.603 34.0785 206.993 36.9346C205.378 39.7906 201.746 40.7986 198.893 39.1843C196.04 37.5591 195.03 33.9288 196.652 31.0691C198.266 28.2095 201.888 27.2051 204.741 28.8194Z" fill="#ED0F69"/>
<path d="M86.158 24.5829H81.0059V43.4135H86.158V24.5829Z" fill="#231F20"/>
<path d="M128.829 24.5829V43.4172H124.227L115.227 30.693C115.238 31.0144 115.245 31.2299 115.253 31.3248C115.304 31.6535 115.325 31.9238 115.325 32.1429V43.4135H111.128V24.5792H116.929L124.759 35.6892C124.693 35.134 124.664 34.714 124.664 34.4292V24.5792H128.829V24.5829Z" fill="#231F20"/>
<path d="M107.419 24.5829V43.4172H102.82L93.8206 30.693C93.8315 31.0144 93.8424 31.2299 93.8534 31.3248C93.9007 31.6535 93.9189 31.9238 93.9189 32.1429V43.4135H89.7251V24.5792H95.5258L103.363 35.6892C103.283 35.134 103.258 34.714 103.258 34.4292V24.5792H107.419V24.5829Z" fill="#231F20"/>
<path d="M177.643 35.9521V43.4172H172.633V24.5829H181.972C183.688 24.5829 185.08 24.7582 186.114 25.1125C187.156 25.474 188.027 26.1205 188.716 27.07C189.401 28.0123 189.74 29.0678 189.74 30.2255C189.74 32.4826 188.508 34.1114 186.052 35.0975L189.973 43.4208H184.471L181.217 35.9558H177.646L177.643 35.9521ZM177.643 27.9356V32.7382H180.693C181.691 32.7382 182.409 32.6725 182.864 32.5483C183.32 32.4241 183.713 32.1466 184.07 31.7229C184.42 31.2993 184.599 30.8062 184.599 30.2511C184.599 29.7288 184.42 29.2577 184.07 28.845C183.713 28.4323 183.334 28.173 182.919 28.0817C182.503 27.9867 181.724 27.9392 180.587 27.9392H177.643V27.9356Z" fill="#231F20"/>
<path d="M161.334 24.5172C163.316 24.5172 165.56 24.572 167.477 25.6019C168.781 26.2849 170.436 27.6654 170.436 30.2657C170.436 31.5404 170.042 32.7857 168.964 33.9508C166.796 36.2699 164.005 36.2407 162.019 36.2407H158.291V43.4866H153.099V24.5172H161.334ZM161.563 32.9209C162.343 32.9209 163.48 32.8917 164.325 32.2306C164.908 31.7668 165.233 31.0437 165.233 30.3534C165.233 29.6631 164.941 28.9692 164.391 28.531C163.607 27.9247 162.507 27.837 161.658 27.837H158.284V32.9245H161.56L161.563 32.9209Z" fill="#231F20"/>
<path d="M226.242 36.6205H226.308L230.924 24.5172H238V43.4866H233.001V28.7245H232.936L227.543 43.4866H224.165L218.649 28.7245H218.583V43.4866H214.495V24.5172H221.564L226.242 36.6205Z" fill="#231F20"/>
<path d="M145.961 25.1161C141.064 22.3368 134.848 24.0643 132.072 28.9728C129.303 33.8704 131.03 40.1083 135.927 42.8876C140.82 45.6633 147.029 43.9394 149.802 39.0309C152.571 34.1187 150.855 27.8954 145.958 25.1161H145.961ZM143.866 28.8194C146.719 30.4446 147.721 34.0785 146.103 36.9346C144.493 39.7906 140.868 40.7986 138.007 39.1843C135.154 37.5591 134.152 33.9288 135.77 31.0691C137.384 28.2095 141.013 27.2051 143.863 28.8194" fill="#231F20"/>
</g>
<defs>
<clipPath id="clip0_0_1741">
<rect width="238" height="68" fill="white"/>
</clipPath>
</defs>
</svg>
