<svg width="24" height="24" viewBox="0 0 24 24" fill="none" xmlns="http://www.w3.org/2000/svg">
<path fill-rule="evenodd" clip-rule="evenodd" d="M5.13783 1.86646C5.82998 1.17288 7.001 1.1125 7.67925 1.8951L11.0424 5.77713C11.0492 5.78433 11.0558 5.7917 11.0624 5.79924C11.676 6.50763 11.5595 7.54543 10.9298 8.17823L10.9288 8.17921L9.6751 9.43381C10.8635 11.4454 12.5403 13.1247 14.5502 14.3159L15.8067 13.0576C16.4363 12.4267 17.4706 12.3089 18.1781 12.9163L22.0981 16.2813C22.8873 16.9592 22.8281 18.1359 22.1336 18.8304L19.326 21.643C18.3141 22.6561 16.7795 22.975 15.5128 22.3597C9.45585 19.4237 4.56768 14.5286 1.64031 8.46747C1.02601 7.20035 1.34462 5.666 2.35583 4.65346M2.35583 4.65346L5.13783 1.86646ZM10.0563 6.69128C10.053 6.68763 10.0498 6.68395 10.0465 6.68022L6.66361 2.77532C6.56189 2.65795 6.30299 2.60153 6.08913 2.81586L3.30703 5.60296C2.66265 6.24812 2.50707 7.1752 2.84999 7.88181L2.85055 7.88295C5.64633 13.6716 10.3148 18.3466 16.0995 21.1505C16.8048 21.4931 17.7309 21.3382 18.375 20.6933L21.1828 17.8805C21.3983 17.665 21.3415 17.4033 21.2227 17.3011M21.2227 17.3011L17.3027 13.9361C17.1903 13.8396 16.9506 13.814 16.7582 14.0068L15.3982 15.3688C15.2276 15.5447 15.0045 15.6607 14.7624 15.6992C14.5172 15.7382 14.266 15.6957 14.0473 15.5781L14.0301 15.5686C11.6976 14.2254 9.76277 12.288 8.42265 9.9538L8.41352 9.93737C8.29592 9.71858 8.25333 9.46726 8.2923 9.22194C8.33077 8.97977 8.44662 8.75665 8.62238 8.58591L9.9771 7.23018C10.1644 7.04172 10.1464 6.80923 10.0563 6.69128" fill="#D0D2D7"/>
</svg>
