<svg width="24" height="24" viewBox="0 0 24 24" fill="none" xmlns="http://www.w3.org/2000/svg">
<path d="M21.423 2.5754C20.7354 1.88777 19.8028 1.50146 18.8303 1.50146C17.8578 1.50146 16.9252 1.88777 16.2375 2.5754L3.26779 15.5474C2.88944 15.9256 2.62847 16.4051 2.51629 16.9281L1.51654 21.5931C1.49018 21.7157 1.49493 21.8428 1.53037 21.963C1.56581 22.0832 1.63081 22.1926 1.71943 22.2813C1.80804 22.3699 1.91745 22.4349 2.03765 22.4703C2.15786 22.5058 2.28503 22.5105 2.40754 22.4841L7.07254 21.4844C7.59534 21.3721 8.07455 21.1111 8.45254 20.7329L21.4238 7.76165C22.1112 7.0739 22.4974 6.1413 22.4974 5.1689C22.4974 4.19649 22.1112 3.26389 21.4238 2.57615L21.423 2.5754ZM17.298 3.6359C17.7075 3.2448 18.2538 3.02948 18.82 3.03598C19.3862 3.04248 19.9274 3.27029 20.3278 3.67068C20.7281 4.07107 20.956 4.61225 20.9625 5.17845C20.969 5.74465 20.7536 6.29092 20.3625 6.7004L19.6875 7.37615L16.623 4.31165L17.298 3.63665V3.6359ZM15.5625 5.3729L18.627 8.43665L7.39279 19.6724C7.21896 19.8461 6.99862 19.966 6.75829 20.0174L3.22504 20.7749L3.98254 17.2424C4.03398 17.0021 4.15379 16.7817 4.32754 16.6079L15.561 5.3729H15.5625Z" fill="white"/>
</svg>
