<svg width="115" height="115" viewBox="0 0 115 115" fill="none" xmlns="http://www.w3.org/2000/svg">
<path fill-rule="evenodd" clip-rule="evenodd" d="M57.4999 18.2427C47.8104 18.2427 39.9556 26.0975 39.9556 35.787C39.9556 45.4764 47.8104 53.3313 57.4999 53.3313C67.1893 53.3313 75.0442 45.4764 75.0442 35.787C75.0442 26.0975 67.1893 18.2427 57.4999 18.2427ZM31.6177 35.787C31.6177 21.4926 43.2055 9.90479 57.4999 9.90479C71.7942 9.90479 83.3821 21.4926 83.3821 35.787C83.3821 50.0813 71.7942 61.6692 57.4999 61.6692C43.2055 61.6692 31.6177 50.0813 31.6177 35.787Z" fill="#537BDE"/>
<path d="M39.928 66.6673L34.2624 62.0166L34.2608 70.3545L35.7866 70.3545C37.9261 70.3545 39.6892 68.7428 39.928 66.6673Z" fill="#537BDE"/>
<path fill-rule="evenodd" clip-rule="evenodd" d="M28.3956 72.5711C30.0151 71.1419 32.1009 70.3537 34.2608 70.3545L34.2624 62.0166L39.928 66.6673C39.9462 66.5092 39.9556 66.3485 39.9556 66.1855C39.9556 63.8831 38.0891 62.0166 35.7866 62.0166H34.2624C30.0702 62.0154 26.0219 63.5455 22.8787 66.3194C19.735 69.0936 17.7131 72.9207 17.1932 77.0811L15.4995 90.6475C15.2736 92.4561 15.4348 94.2926 15.9726 96.0342C16.5105 97.7758 17.4126 99.3832 18.6191 100.75C19.8257 102.116 21.309 103.21 22.9707 103.959C24.6322 104.709 26.4339 105.096 28.2565 105.096H86.7433C88.5658 105.096 90.3676 104.709 92.029 103.959C93.6908 103.21 95.1741 102.116 96.3806 100.75C97.5872 99.3832 98.4893 97.7758 99.0271 96.0342C99.565 94.2925 99.7261 92.4555 99.5001 90.6467L97.8022 77.0811C97.2826 72.9227 95.2623 69.0971 92.121 66.3232C88.9798 63.5492 84.9325 62.0178 80.7417 62.0166H79.2131C76.9107 62.0166 75.0442 63.8831 75.0442 66.1855C75.0442 68.488 76.9107 70.3545 79.2131 70.3545H80.7417C82.9002 70.3554 84.9841 71.1443 86.602 72.573C88.2203 74.002 89.2611 75.9736 89.5288 78.1158L91.2267 91.6814C91.3061 92.3169 91.2494 92.9621 91.0605 93.574C90.8715 94.186 90.5545 94.7507 90.1306 95.2308C89.7067 95.7109 89.1855 96.0953 88.6017 96.3586C88.0178 96.6219 87.3837 96.7579 86.7433 96.7578H76.5857L86.7433 105.096L74.1475 96.7578H28.2556C27.6151 96.7579 26.9819 96.6219 26.3981 96.3586C25.8142 96.0953 25.2931 95.7109 24.8691 95.2308C24.4452 94.7507 24.1283 94.186 23.9393 93.574C23.7503 92.9621 23.6937 92.3164 23.7731 91.6809L25.4668 78.1145C25.7347 75.9714 26.7763 74.0001 28.3956 72.5711Z" fill="#537BDE"/>
<path d="M86.7433 105.096L76.5857 96.7578H74.1475L86.7433 105.096Z" fill="#537BDE"/>
</svg>
