<svg width="115" height="115" viewBox="0 0 115 115" fill="none" xmlns="http://www.w3.org/2000/svg">
<path fill-rule="evenodd" clip-rule="evenodd" d="M53.4243 22.45C39.7432 22.45 28.4238 34.0239 28.4238 48.5886C28.4238 49.0536 28.4354 49.5156 28.4582 49.9741C28.5053 50.9177 28.1632 51.8394 27.512 52.5239C26.8608 53.2084 25.9573 53.5959 25.0125 53.5959H24.9738C18.7355 53.5959 13.4498 58.8947 13.4498 65.7188C13.4498 72.5429 18.7355 77.8417 24.9738 77.8417H31.9581C33.8635 77.8417 35.4081 79.3863 35.4081 81.2917C35.4081 83.1971 33.8635 84.7417 31.9581 84.7417H24.9738C14.6722 84.7417 6.5498 76.0961 6.5498 65.7188C6.5498 56.5192 12.9332 48.6806 21.5593 47.0199C22.3483 29.6174 36.1947 15.55 53.4243 15.55C64.963 15.55 75.0078 21.8834 80.5986 31.275C81.5107 31.1745 82.4361 31.123 83.3722 31.123C97.8087 31.123 109.283 43.2547 109.283 57.9323C109.283 69.3168 102.409 79.1245 92.5969 82.9922C90.2459 84.1147 87.6256 84.7417 84.8696 84.7417H83.8748C81.9694 84.7417 80.4248 83.1971 80.4248 81.2917C80.4248 79.3863 81.9694 77.8417 83.8748 77.8417H84.8696C86.6002 77.8417 88.2358 77.4426 89.7056 76.7261C89.7922 76.6839 89.8804 76.6454 89.9702 76.6106C97.1603 73.8229 102.383 66.5589 102.383 57.9323C102.383 46.8079 93.7454 38.023 83.3722 38.023C82.0329 38.023 80.7295 38.1675 79.4739 38.4413C77.9268 38.7788 76.3486 38.0197 75.6465 36.6004C71.4603 28.1386 63.0395 22.45 53.4243 22.45Z" fill="#ffffff"/>
<path fill-rule="evenodd" clip-rule="evenodd" d="M61.3663 57.3331C61.3663 55.4277 59.8217 53.8831 57.9163 53.8831C56.0109 53.8831 54.4663 55.4277 54.4663 57.3331V87.3373L46.9808 79.8519C45.6335 78.5046 43.4491 78.5046 42.1018 79.8519C40.7545 81.1992 40.7545 83.3836 42.1018 84.7309L55.4733 98.1024C55.4845 98.1137 55.4959 98.1249 55.5073 98.136M55.5073 98.136L55.4768 98.1059L55.4733 98.1024C54.851 97.4783 54.4663 96.6173 54.4663 95.6664V87.3373L57.9163 90.7873L61.3663 87.3373V95.6664C61.3663 96.6178 60.9812 97.4792 60.3584 98.1034L73.7308 84.7309C75.0781 83.3836 75.0781 81.1992 73.7308 79.8519C72.3835 78.5046 70.1991 78.5046 68.8518 79.8519L61.3663 87.3373V57.3331M59.2467 98.8505C58.8709 99.0077 58.4614 99.1003 58.0319 99.1145L59.2467 98.8505Z" fill="#ffffff"/>
<path d="M55.4768 98.1059L55.5073 98.136C56.1038 98.7179 56.9103 99.0856 57.8024 99.1145C57.8402 99.1158 57.8782 99.1164 57.9163 99.1164C57.955 99.1164 57.9936 99.1157 58.0319 99.1145C58.4461 99.1007 58.8582 99.0127 59.2467 98.8505C59.655 98.6797 60.0235 98.4327 60.3344 98.1272C60.3415 98.1201 60.3487 98.113 60.3558 98.1059L60.3584 98.1034C60.9812 97.4792 61.3663 96.6178 61.3663 95.6664V87.3373L57.9163 90.7873L54.4663 87.3373V95.6664C54.4663 96.6173 54.851 97.4783 55.4733 98.1024L55.4768 98.1059Z" fill="#ffffff"/>
</svg>
