<svg width="30" height="30" viewBox="0 0 30 30" fill="none" xmlns="http://www.w3.org/2000/svg">
<path fill-rule="evenodd" clip-rule="evenodd" d="M3 0H27C28.657 0 30 1.34304 30 3V27C30 28.657 28.657 30 27 30H3C1.34304 30 0 28.657 0 27V3C0 1.34304 1.34304 0 3 0Z" fill="#010101"/>
<path fill-rule="evenodd" clip-rule="evenodd" d="M20.4782 11.5191C22.0019 12.6078 23.8688 13.2484 25.8849 13.2484V9.37057C25.5033 9.37072 25.1227 9.33091 24.7494 9.2518V12.3042C22.7335 12.3042 20.8669 11.6636 19.3427 10.5749V18.4883C19.3427 22.447 16.132 25.6559 12.1715 25.6559C10.6938 25.6559 9.32022 25.2094 8.1792 24.4436C9.48145 25.7744 11.2975 26.6001 13.3066 26.6001C17.2674 26.6001 20.4783 23.3912 20.4783 19.4323V11.5191H20.4782ZM21.8789 7.60682C21.1001 6.75651 20.5889 5.65754 20.4782 4.44258V3.94385H19.4022C19.673 5.48795 20.5968 6.80719 21.8789 7.60682ZM10.6842 21.4059C10.2492 20.8357 10.014 20.1382 10.015 19.421C10.015 17.6104 11.4837 16.1424 13.2955 16.1424C13.6332 16.1422 13.9688 16.194 14.2906 16.296V12.3316C13.9146 12.2801 13.5351 12.2583 13.1556 12.2663V15.352C12.8336 15.25 12.4978 15.1982 12.1601 15.1984C10.3482 15.1984 8.87973 16.6664 8.87973 18.4771C8.87973 19.7574 9.61377 20.866 10.6842 21.4059Z" fill="#EE1D52"/>
<path fill-rule="evenodd" clip-rule="evenodd" d="M19.343 10.5749C20.8671 11.6635 22.7337 12.3042 24.7497 12.3042V9.25172C23.6244 9.01224 22.6282 8.4244 21.8791 7.60681C20.597 6.80719 19.6732 5.48795 19.4024 3.94385H16.5761V19.4321C16.5697 21.2377 15.1036 22.6996 13.2956 22.6996C12.2302 22.6996 11.2837 22.1921 10.6843 21.4059C9.61384 20.8659 8.8798 19.7573 8.8798 18.4771C8.8798 16.6664 10.3483 15.1984 12.1602 15.1984C12.5073 15.1984 12.8418 15.2524 13.1557 15.352V12.2663C9.26478 12.3466 6.1355 15.5242 6.1355 19.4322C6.1355 21.383 6.91479 23.1516 8.17945 24.4437C9.32047 25.2095 10.694 25.656 12.1717 25.656C16.1322 25.656 19.343 22.4469 19.343 18.4884V10.5749Z" fill="white"/>
<path fill-rule="evenodd" clip-rule="evenodd" d="M24.7494 9.2519V8.42653C23.7345 8.42806 22.7398 8.14401 21.8788 7.60686C22.6409 8.44084 23.6445 9.01596 24.7494 9.2519ZM19.4023 3.94401C19.3764 3.79645 19.3566 3.64791 19.3428 3.49874V3H15.4404V18.4884C15.4341 20.2938 13.9681 21.7558 12.16 21.7558C11.6291 21.7558 11.128 21.6299 10.6841 21.406C11.2835 22.1923 12.2301 22.6998 13.2955 22.6998C15.1033 22.6998 16.5696 21.2378 16.576 19.4323V3.94401H19.4023ZM13.1556 12.2665V11.3878C12.8295 11.3432 12.5008 11.3209 12.1717 11.3211C8.21073 11.3211 5 14.5302 5 18.4885C5 20.9702 6.26188 23.1573 8.17941 24.4438C6.91475 23.1517 6.13545 21.3831 6.13545 19.4323C6.13545 15.5245 9.2646 12.3469 13.1556 12.2665Z" fill="#69C9D0"/>
</svg>
