<svg width="30" height="30" viewBox="0 0 30 30" fill="none" xmlns="http://www.w3.org/2000/svg">
<path d="M26.9287 8.74314C26.947 9.01437 26.947 9.2856 26.947 9.55933C26.947 17.9 20.7556 27.5192 9.43449 27.5192V27.5142C6.09019 27.5192 2.81536 26.5368 0 24.6844C0.486289 24.7444 0.975015 24.7744 1.46496 24.7757C4.23644 24.7782 6.9287 23.8245 9.10908 22.0684C6.47532 22.0171 4.16575 20.256 3.35893 17.685C4.28154 17.8675 5.23218 17.83 6.13772 17.5762C3.2663 16.9813 1.20049 14.394 1.20049 11.3892C1.20049 11.3617 1.20049 11.3354 1.20049 11.3092C2.05606 11.7979 3.01402 12.0691 3.99391 12.0991C1.28946 10.2455 0.45582 6.55581 2.08897 3.67102C5.21389 7.61448 9.8245 10.0118 14.7739 10.2655C14.2779 8.07319 14.9555 5.77586 16.5545 4.23473C19.0335 1.84491 22.9324 1.9674 25.2626 4.50846C26.6411 4.22973 27.9622 3.71102 29.1712 2.97607C28.7118 4.43721 27.7502 5.67837 26.4656 6.46706C27.6856 6.31957 28.8775 5.9846 30 5.47339C29.1737 6.74329 28.1328 7.84946 26.9287 8.74314Z" fill="#1D9BF0"/>
</svg>
