<svg width="30" height="30" viewBox="0 0 30 30" fill="none" xmlns="http://www.w3.org/2000/svg">
<path fill-rule="evenodd" clip-rule="evenodd" d="M8.87619 0C10.5244 0 12.1248 0.463026 13.5021 1.31681C13.9925 1.26441 14.4862 1.238 14.9812 1.238C16.803 1.238 18.607 1.59565 20.2902 2.29052C21.9733 2.98539 23.5027 4.00388 24.7909 5.28784C26.0791 6.57179 27.101 8.09607 27.7982 9.77364C28.4954 11.4512 28.8542 13.2492 28.8542 15.065C28.8542 15.7103 28.8089 16.3533 28.7192 16.9895C28.8893 17.2914 29.0417 17.6038 29.1752 17.925C29.6156 18.9846 29.8422 20.1202 29.8422 21.267C29.8422 22.4138 29.6156 23.5494 29.1752 24.609C28.7349 25.6685 28.0895 26.6312 27.2759 27.4422C26.4622 28.2531 25.4963 28.8964 24.4333 29.3352C23.3702 29.7741 22.2308 30 21.0802 30C19.504 30 17.9716 29.5767 16.636 28.7933C16.0879 28.8589 15.5354 28.892 14.9812 28.892C13.1594 28.892 11.3554 28.5344 9.67222 27.8395C7.98907 27.1446 6.45972 26.1261 5.1715 24.8422C3.88327 23.5582 2.86139 22.0339 2.16421 20.3564C1.46702 18.6788 1.10819 16.8808 1.10819 15.065C1.10819 14.3851 1.1585 13.7077 1.25804 13.0382C0.51675 11.736 0.117188 10.2535 0.117188 8.73C0.117188 6.41466 1.04001 4.19415 2.68264 2.55696C4.32527 0.919765 6.55316 0 8.87619 0ZM9.71319 13.143C10.0517 13.7225 10.5196 14.216 11.0802 14.585C11.823 15.071 12.6126 15.4814 13.4372 15.81C14.3592 16.1953 15.0745 16.522 15.5832 16.79C16.0133 17.0015 16.4037 17.2857 16.7372 17.63C16.9895 17.8978 17.1298 18.252 17.1292 18.62C17.14 18.8795 17.0889 19.1378 16.9801 19.3737C16.8712 19.6095 16.7077 19.8159 16.5032 19.976C15.9568 20.3437 15.3031 20.5179 14.6462 20.471C14.2747 20.4748 13.904 20.4366 13.5412 20.357C13.2469 20.2924 12.9591 20.2014 12.6812 20.085C12.4379 19.9797 12.1055 19.8217 11.6842 19.611C11.3454 19.4303 10.9682 19.3332 10.5842 19.328C10.2396 19.3139 9.90268 19.4328 9.64319 19.66C9.51942 19.7778 9.42268 19.9211 9.35966 20.0799C9.29665 20.2388 9.26885 20.4094 9.27819 20.58C9.27044 20.9035 9.36801 21.2208 9.55619 21.484C9.78285 21.7713 10.0759 21.9991 10.4102 22.148C11.7177 22.7147 13.135 22.9828 14.5592 22.933C15.5956 22.9538 16.6271 22.7858 17.6032 22.437C18.4131 22.1494 19.1184 21.6259 19.6282 20.934C20.1288 20.2032 20.3825 19.3313 20.3522 18.446C20.3716 17.7229 20.1906 17.0086 19.8292 16.382C19.4621 15.7859 18.9676 15.2784 18.3812 14.896C17.6387 14.417 16.8509 14.012 16.0292 13.687C15.9414 13.644 15.8504 13.6075 15.7572 13.578C14.9152 13.23 14.2819 12.9507 13.8572 12.74C13.4781 12.5623 13.1347 12.3165 12.8442 12.015C12.5997 11.7583 12.4648 11.4165 12.4682 11.062C12.4565 10.792 12.5175 10.5238 12.6448 10.2855C12.7722 10.0471 12.9612 9.84733 13.1922 9.707C13.7395 9.3807 14.3694 9.21957 15.0062 9.243C15.4947 9.23788 15.9818 9.29843 16.4542 9.423C16.9674 9.571 17.4697 9.75478 17.9572 9.973C18.155 10.0648 18.3701 10.1132 18.5882 10.115C18.7467 10.1192 18.9042 10.0898 19.0506 10.0288C19.1969 9.96781 19.3286 9.87654 19.4372 9.761C19.5519 9.63561 19.6408 9.48886 19.6988 9.32912C19.7568 9.16938 19.7827 8.99978 19.7752 8.83C19.7803 8.5032 19.6662 8.18573 19.4542 7.937C19.1664 7.63468 18.8095 7.40681 18.4142 7.273C17.9837 7.11489 17.5385 7 17.0852 6.93C16.4519 6.82612 15.8109 6.77694 15.1692 6.783C14.1884 6.77719 13.214 6.94129 12.2892 7.268C11.4389 7.55507 10.6798 8.06227 10.0892 8.738C9.52089 9.41089 9.22042 10.2696 9.24519 11.15C9.22502 11.8437 9.38634 12.5307 9.71319 13.143Z" fill="url(#paint0_linear_3_2809)"/>
<defs>
<linearGradient id="paint0_linear_3_2809" x1="9.56719" y1="5.689" x2="23.4082" y2="29.662" gradientUnits="userSpaceOnUse">
<stop stop-color="#00B7F0"/>
<stop offset="1" stop-color="#007CC1"/>
</linearGradient>
</defs>
</svg>
