<svg width="30" height="30" viewBox="0 0 30 30" fill="none" xmlns="http://www.w3.org/2000/svg">
<path d="M27.7775 0.00223697H2.21373C1.00554 -0.0113978 0.0147454 0.956413 0 2.16462V27.835C0.0142405 29.0437 1.00495 30.0125 2.21373 29.9998H27.7775C28.9886 30.0148 29.9832 29.0461 30 27.835V2.16277C29.9827 0.952174 28.9881 -0.0155815 27.7775 0.000190064" fill="#0A66C2"/>
<path d="M21.1164 25.5619H25.5614L25.5633 17.7088C25.5633 13.8536 24.7326 10.8901 20.2273 10.8901C18.505 10.8262 16.8872 11.7148 16.017 13.2025H15.9573V11.2462H11.69V25.5615H16.1351V18.4798C16.1351 16.6123 16.4893 14.8037 18.8045 14.8037C21.0867 14.8037 21.1164 16.9406 21.1164 18.6006V25.5619Z" fill="white"/>
<path d="M4.09454 6.71029C4.0948 8.13496 5.2499 9.28967 6.67453 9.28941C7.35866 9.28929 8.01473 9.01739 8.4984 8.53354C8.98206 8.04969 9.25372 7.39351 9.25359 6.70937C9.25334 5.2847 8.09824 4.12999 6.6736 4.13025C5.24897 4.1305 4.09429 5.28563 4.09454 6.71029Z" fill="white"/>
<path d="M4.44737 25.5619H8.89706V11.2462H4.44737V25.5619Z" fill="white"/>
</svg>
