<svg width="30" height="30" viewBox="0 0 30 30" fill="none" xmlns="http://www.w3.org/2000/svg">
<path fill-rule="evenodd" clip-rule="evenodd" d="M7.2973 15C7.2973 10.7459 10.7459 7.2973 15 7.2973C19.2541 7.2973 22.7027 10.7459 22.7027 15C22.7027 19.2541 19.2541 22.7027 15 22.7027C10.7459 22.7027 7.2973 19.2541 7.2973 15ZM15 20C12.2386 20 10 17.7614 10 15C10 12.2386 12.2386 10 15 10C17.7614 10 20 12.2386 20 15C20 17.7614 17.7614 20 15 20Z" fill="url(#paint0_linear_3_2828)"/>
<path fill-rule="evenodd" clip-rule="evenodd" d="M7.2973 15C7.2973 10.7459 10.7459 7.2973 15 7.2973C19.2541 7.2973 22.7027 10.7459 22.7027 15C22.7027 19.2541 19.2541 22.7027 15 22.7027C10.7459 22.7027 7.2973 19.2541 7.2973 15ZM15 20C12.2386 20 10 17.7614 10 15C10 12.2386 12.2386 10 15 10C17.7614 10 20 12.2386 20 15C20 17.7614 17.7614 20 15 20Z" fill="url(#paint1_radial_3_2828)"/>
<path d="M23.007 8.79295C24.0011 8.79295 24.8071 7.9871 24.8071 6.99298C24.8071 5.99886 24.0011 5.19295 23.007 5.19295C22.013 5.19295 21.207 5.99886 21.207 6.99298C21.207 7.9871 22.013 8.79295 23.007 8.79295Z" fill="url(#paint2_linear_3_2828)"/>
<path d="M23.007 8.79295C24.0011 8.79295 24.8071 7.9871 24.8071 6.99298C24.8071 5.99886 24.0011 5.19295 23.007 5.19295C22.013 5.19295 21.207 5.99886 21.207 6.99298C21.207 7.9871 22.013 8.79295 23.007 8.79295Z" fill="url(#paint3_radial_3_2828)"/>
<path fill-rule="evenodd" clip-rule="evenodd" d="M15 0C10.9262 0 10.4154 0.0172674 8.81552 0.0902666C7.21894 0.163087 6.12854 0.416679 5.17443 0.78751C4.18805 1.17079 3.35153 1.68369 2.51758 2.51758C1.68369 3.35153 1.17079 4.18805 0.78751 5.17443C0.416679 6.12854 0.163087 7.21894 0.0902666 8.81552C0.0172674 10.4154 0 10.9262 0 15C0 19.0738 0.0172674 19.5846 0.0902666 21.1845C0.163087 22.7811 0.416679 23.8715 0.78751 24.8256C1.17079 25.812 1.68369 26.6485 2.51758 27.4824C3.35153 28.3163 4.18805 28.8292 5.17443 29.2126C6.12854 29.5833 7.21894 29.8369 8.81552 29.9097C10.4154 29.9827 10.9262 30 15 30C19.0738 30 19.5846 29.9827 21.1845 29.9097C22.7811 29.8369 23.8715 29.5833 24.8256 29.2126C25.812 28.8292 26.6485 28.3163 27.4824 27.4824C28.3163 26.6485 28.8292 25.812 29.2126 24.8256C29.5833 23.8715 29.8369 22.7811 29.9097 21.1845C29.9827 19.5846 30 19.0738 30 15C30 10.9262 29.9827 10.4154 29.9097 8.81552C29.8369 7.21894 29.5833 6.12854 29.2126 5.17443C28.8292 4.18805 28.3163 3.35153 27.4824 2.51758C26.6485 1.68369 25.812 1.17079 24.8256 0.78751C23.8715 0.416679 22.7811 0.163087 21.1845 0.0902666C19.5846 0.0172674 19.0738 0 15 0ZM15 2.7027C19.0052 2.7027 19.4796 2.718 21.0613 2.79017C22.5238 2.85685 23.318 3.10122 23.8466 3.30664C24.5467 3.57875 25.0464 3.90379 25.5713 4.42872C26.0962 4.95359 26.4213 5.45327 26.6934 6.15343C26.8988 6.68199 27.1432 7.47623 27.2098 8.93871C27.282 10.5204 27.2973 10.9948 27.2973 15C27.2973 19.0052 27.282 19.4796 27.2098 21.0613C27.1432 22.5238 26.8988 23.318 26.6934 23.8466C26.4213 24.5467 26.0962 25.0464 25.5713 25.5713C25.0464 26.0962 24.5467 26.4213 23.8466 26.6934C23.318 26.8988 22.5238 27.1431 21.0613 27.2098C19.4798 27.282 19.0055 27.2973 15 27.2973C10.9945 27.2973 10.5202 27.282 8.93872 27.2098C7.47623 27.1431 6.68199 26.8988 6.15343 26.6934C5.45327 26.4213 4.95359 26.0962 4.42872 25.5713C3.90385 25.0464 3.57875 24.5467 3.30664 23.8466C3.10122 23.318 2.85686 22.5238 2.79017 21.0613C2.718 19.4796 2.7027 19.0052 2.7027 15C2.7027 10.9948 2.718 10.5204 2.79017 8.93871C2.85686 7.47623 3.10122 6.68199 3.30664 6.15343C3.57875 5.45327 3.90379 4.95359 4.42872 4.42872C4.95359 3.90379 5.45327 3.57875 6.15343 3.30664C6.68199 3.10122 7.47623 2.85685 8.93872 2.79017C10.5204 2.718 10.9948 2.7027 15 2.7027Z" fill="url(#paint4_linear_3_2828)"/>
<path fill-rule="evenodd" clip-rule="evenodd" d="M15 0C10.9262 0 10.4154 0.0172674 8.81552 0.0902666C7.21894 0.163087 6.12854 0.416679 5.17443 0.78751C4.18805 1.17079 3.35153 1.68369 2.51758 2.51758C1.68369 3.35153 1.17079 4.18805 0.78751 5.17443C0.416679 6.12854 0.163087 7.21894 0.0902666 8.81552C0.0172674 10.4154 0 10.9262 0 15C0 19.0738 0.0172674 19.5846 0.0902666 21.1845C0.163087 22.7811 0.416679 23.8715 0.78751 24.8256C1.17079 25.812 1.68369 26.6485 2.51758 27.4824C3.35153 28.3163 4.18805 28.8292 5.17443 29.2126C6.12854 29.5833 7.21894 29.8369 8.81552 29.9097C10.4154 29.9827 10.9262 30 15 30C19.0738 30 19.5846 29.9827 21.1845 29.9097C22.7811 29.8369 23.8715 29.5833 24.8256 29.2126C25.812 28.8292 26.6485 28.3163 27.4824 27.4824C28.3163 26.6485 28.8292 25.812 29.2126 24.8256C29.5833 23.8715 29.8369 22.7811 29.9097 21.1845C29.9827 19.5846 30 19.0738 30 15C30 10.9262 29.9827 10.4154 29.9097 8.81552C29.8369 7.21894 29.5833 6.12854 29.2126 5.17443C28.8292 4.18805 28.3163 3.35153 27.4824 2.51758C26.6485 1.68369 25.812 1.17079 24.8256 0.78751C23.8715 0.416679 22.7811 0.163087 21.1845 0.0902666C19.5846 0.0172674 19.0738 0 15 0ZM15 2.7027C19.0052 2.7027 19.4796 2.718 21.0613 2.79017C22.5238 2.85685 23.318 3.10122 23.8466 3.30664C24.5467 3.57875 25.0464 3.90379 25.5713 4.42872C26.0962 4.95359 26.4213 5.45327 26.6934 6.15343C26.8988 6.68199 27.1432 7.47623 27.2098 8.93871C27.282 10.5204 27.2973 10.9948 27.2973 15C27.2973 19.0052 27.282 19.4796 27.2098 21.0613C27.1432 22.5238 26.8988 23.318 26.6934 23.8466C26.4213 24.5467 26.0962 25.0464 25.5713 25.5713C25.0464 26.0962 24.5467 26.4213 23.8466 26.6934C23.318 26.8988 22.5238 27.1431 21.0613 27.2098C19.4798 27.282 19.0055 27.2973 15 27.2973C10.9945 27.2973 10.5202 27.282 8.93872 27.2098C7.47623 27.1431 6.68199 26.8988 6.15343 26.6934C5.45327 26.4213 4.95359 26.0962 4.42872 25.5713C3.90385 25.0464 3.57875 24.5467 3.30664 23.8466C3.10122 23.318 2.85686 22.5238 2.79017 21.0613C2.718 19.4796 2.7027 19.0052 2.7027 15C2.7027 10.9948 2.718 10.5204 2.79017 8.93871C2.85686 7.47623 3.10122 6.68199 3.30664 6.15343C3.57875 5.45327 3.90379 4.95359 4.42872 4.42872C4.95359 3.90379 5.45327 3.57875 6.15343 3.30664C6.68199 3.10122 7.47623 2.85685 8.93872 2.79017C10.5204 2.718 10.9948 2.7027 15 2.7027Z" fill="url(#paint5_radial_3_2828)"/>
<defs>
<linearGradient id="paint0_linear_3_2828" x1="1.7504" y1="1.57719" x2="11.2091" y2="38.1648" gradientUnits="userSpaceOnUse">
<stop stop-color="#4E60D3"/>
<stop offset="0.142763" stop-color="#913BAF"/>
<stop offset="0.761458" stop-color="#D52D88"/>
<stop offset="1" stop-color="#F26D4F"/>
</linearGradient>
<radialGradient id="paint1_radial_3_2828" cx="0" cy="0" r="1" gradientUnits="userSpaceOnUse" gradientTransform="translate(9.0823 30) rotate(32.1601) scale(28.0184 20.1639)">
<stop stop-color="#FED276"/>
<stop offset="0.17024" stop-color="#FDBD61" stop-opacity="0.975006"/>
<stop offset="0.454081" stop-color="#F6804D"/>
<stop offset="1" stop-color="#E83D5C" stop-opacity="0.01"/>
</radialGradient>
<linearGradient id="paint2_linear_3_2828" x1="1.7504" y1="1.57719" x2="11.2091" y2="38.1648" gradientUnits="userSpaceOnUse">
<stop stop-color="#4E60D3"/>
<stop offset="0.142763" stop-color="#913BAF"/>
<stop offset="0.761458" stop-color="#D52D88"/>
<stop offset="1" stop-color="#F26D4F"/>
</linearGradient>
<radialGradient id="paint3_radial_3_2828" cx="0" cy="0" r="1" gradientUnits="userSpaceOnUse" gradientTransform="translate(9.0823 30) rotate(32.1601) scale(28.0184 20.1639)">
<stop stop-color="#FED276"/>
<stop offset="0.17024" stop-color="#FDBD61" stop-opacity="0.975006"/>
<stop offset="0.454081" stop-color="#F6804D"/>
<stop offset="1" stop-color="#E83D5C" stop-opacity="0.01"/>
</radialGradient>
<linearGradient id="paint4_linear_3_2828" x1="1.7504" y1="1.57719" x2="11.2091" y2="38.1648" gradientUnits="userSpaceOnUse">
<stop stop-color="#4E60D3"/>
<stop offset="0.142763" stop-color="#913BAF"/>
<stop offset="0.761458" stop-color="#D52D88"/>
<stop offset="1" stop-color="#F26D4F"/>
</linearGradient>
<radialGradient id="paint5_radial_3_2828" cx="0" cy="0" r="1" gradientUnits="userSpaceOnUse" gradientTransform="translate(9.0823 30) rotate(32.1601) scale(28.0184 20.1639)">
<stop stop-color="#FED276"/>
<stop offset="0.17024" stop-color="#FDBD61" stop-opacity="0.975006"/>
<stop offset="0.454081" stop-color="#F6804D"/>
<stop offset="1" stop-color="#E83D5C" stop-opacity="0.01"/>
</radialGradient>
</defs>
</svg>
