<svg width="30" height="30" viewBox="0 0 30 30" fill="none" xmlns="http://www.w3.org/2000/svg">
<path fill-rule="evenodd" clip-rule="evenodd" d="M29.373 7.79064C29.028 6.50011 28.0116 5.48344 26.7208 5.13846C24.3813 4.51172 14.9999 4.51172 14.9999 4.51172C14.9999 4.51172 5.61872 4.51172 3.27917 5.13846C1.98839 5.48344 0.971972 6.50011 0.626991 7.79064C0 10.1304 0 15.0115 0 15.0115C0 15.0115 0 19.8929 0.626991 22.2324C0.971972 23.523 1.98839 24.5399 3.27917 24.8846C5.61872 25.5116 14.9999 25.5116 14.9999 25.5116C14.9999 25.5116 24.3813 25.5116 26.7208 24.8846C28.0116 24.5399 29.028 23.523 29.373 22.2324C30 19.8929 30 15.0115 30 15.0115C30 15.0115 30 10.1304 29.373 7.79064Z" fill="#FF0000"/>
<path fill-rule="evenodd" clip-rule="evenodd" d="M12 19.5116L19.7938 15.0118L12 10.5115V19.5116Z" fill="white"/>
</svg>
