<svg width="28" height="28" viewBox="0 0 28 28" fill="none" xmlns="http://www.w3.org/2000/svg">
<path d="M17.4269 11.2809C17.4364 11.4763 17.2856 11.6423 17.0903 11.6518C16.8949 11.6612 16.7289 11.5105 16.7195 11.3151C16.661 10.1048 16.0987 9.52421 14.9366 9.46247C14.7413 9.4521 14.5914 9.28536 14.6018 9.09004C14.6122 8.89473 14.7789 8.74481 14.9742 8.75519C16.5035 8.83643 17.3511 9.71177 17.4269 11.2809Z" fill="#665CAC"/>
<path d="M18.8804 12.2614C19.0759 12.2658 19.238 12.1109 19.2425 11.9154C19.2739 10.5311 18.8594 9.3624 17.998 8.42396C17.1351 7.48384 15.9449 6.96328 14.4385 6.85632C14.2434 6.84246 14.074 6.98939 14.0601 7.18449C14.0463 7.37958 14.1932 7.54897 14.3883 7.56282C15.7227 7.65757 16.7426 8.10365 17.4762 8.9029C18.2104 9.70285 18.5618 10.6933 18.5344 11.8993C18.5299 12.0948 18.6848 12.2569 18.8804 12.2614Z" fill="#665CAC"/>
<path d="M21.104 12.6316C21.1055 12.8272 20.9481 12.9869 20.7525 12.9884C20.5569 12.9898 20.3972 12.8325 20.3957 12.6369C20.3796 10.4818 19.7436 8.80659 18.49 7.58084C17.232 6.35481 15.6682 5.73528 13.7892 5.72327C13.5937 5.72201 13.4361 5.56245 13.4374 5.36687C13.4386 5.17128 13.5982 5.01375 13.7938 5.015C15.8529 5.02817 17.5929 5.71753 18.9847 7.07401C20.3815 8.43973 21.0865 10.2967 21.104 12.6316Z" fill="#665CAC"/>
<path d="M15.7916 15.7521C15.5269 16.084 15.0269 16.042 15.0269 16.042C11.388 15.1134 10.4132 11.4283 10.4132 11.4283C10.4132 11.4283 10.3711 10.9325 10.7031 10.6635L11.3586 10.1425C11.6863 9.89039 11.8922 9.28111 11.5603 8.68444C11.3754 8.35249 11.0056 7.76002 10.7325 7.38605C10.4426 6.99107 9.77027 6.1843 9.76607 6.1801C9.44252 5.79352 8.9635 5.70528 8.45927 5.9658C8.45927 5.9658 8.45507 5.97 8.45087 5.97C7.97185 6.23893 7.52645 6.60029 7.11046 7.0583L7.10206 7.0667C6.79112 7.44067 6.61043 7.81044 6.56841 8.17181C6.56001 8.21382 6.55581 8.26845 6.56001 8.33148C6.55581 8.49115 6.58102 8.64662 6.63144 8.80209L6.64825 8.8147C6.80372 9.37355 7.1987 10.3022 8.05169 11.8527C8.60634 12.8569 9.1736 13.6973 9.73666 14.4032C10.0308 14.7772 10.3669 15.1596 10.7535 15.5504L10.9048 15.7016C11.2956 16.0882 11.6779 16.4244 12.0519 16.7185C12.7578 17.2815 13.594 17.8488 14.6025 18.4035C16.153 19.2564 17.0816 19.6514 17.6404 19.8069L17.6531 19.8237C17.8085 19.8741 17.964 19.8951 18.1237 19.8951C18.1867 19.8993 18.2413 19.8951 18.2833 19.8867C18.6447 19.8447 19.0145 19.664 19.3884 19.3531L19.3968 19.3447C19.8549 18.9287 20.2162 18.4791 20.4851 18.0043C20.4851 18.0043 20.4893 18.0001 20.4893 17.9959C20.7499 17.4916 20.6616 17.0126 20.275 16.6891C20.275 16.6891 19.4641 16.0126 19.0691 15.7226C18.6993 15.4495 18.1027 15.0839 17.7707 14.8949C17.174 14.5629 16.5648 14.7688 16.3126 15.0966L15.7916 15.7521Z" fill="#665CAC"/>
<path fill-rule="evenodd" clip-rule="evenodd" d="M14.4974 0.0200985C20.7583 0.0495119 23.5693 2.09164 24.2669 2.73033C26.5737 4.73464 27.8553 9.18027 26.9939 16.2017C26.2361 22.4054 21.9089 23.506 20.4573 23.8753C20.3151 23.9114 20.2005 23.9406 20.1196 23.9668C19.7288 24.0928 16.2706 24.9584 11.7788 24.5803C11.283 25.1559 10.6233 25.9123 10.1484 26.4249C10.005 26.5794 9.87069 26.732 9.74235 26.8779C9.09248 27.6162 8.59531 28.1811 7.83739 27.946C7.08525 27.7149 7.12727 26.572 7.12727 26.572L7.13147 23.7525H7.12727C0.555479 21.9037 0.652122 15.0924 0.727756 11.4535C0.799189 7.81464 1.50511 4.88171 3.50942 2.8774C7.11046 -0.425304 14.4974 0.0200985 14.4974 0.0200985ZM19.7118 21.9113C20.9456 21.625 24.3911 20.8254 25.0274 15.6974C25.7543 9.83156 24.7585 5.82714 22.8088 4.15058C22.2205 3.61693 19.6826 2.02441 14.384 1.9992C14.384 1.9992 8.11051 1.58741 5.06413 4.34386C3.37076 6.01623 2.7993 8.50376 2.73627 11.5417L2.7294 11.8512C2.65829 14.958 2.53296 20.4334 7.90462 21.9247C7.90462 21.9247 7.88361 26.2316 7.87941 26.6098C7.87941 26.8745 7.92143 27.0552 8.0727 27.093C8.18195 27.1224 8.34582 27.0636 8.48448 26.9249C9.37109 26.0299 12.2158 22.6012 12.2158 22.6012C16.0311 22.8533 19.0649 22.0969 19.3926 21.9919C19.4681 21.9678 19.5767 21.9426 19.7118 21.9113Z" fill="#665CAC"/>
</svg>
