<svg width="30" height="30" viewBox="0 0 30 30" fill="none" xmlns="http://www.w3.org/2000/svg">
<path d="M30 25.6099C30 28.0346 28.0445 30 25.6323 30H4.36767C1.95545 30 0 28.0346 0 25.6099V4.39008C0 1.96548 1.95545 0 4.36767 0H25.6323C28.0446 0 30 1.96548 30 4.39008V25.6099V25.6099Z" fill="#FAAB62"/>
<path d="M29.8458 25.5003C29.8458 27.8998 27.9104 29.845 25.523 29.845H4.47695C2.08956 29.845 0.154242 27.8998 0.154242 25.5003V4.49968C0.154242 2.10017 2.08964 0.155029 4.47695 0.155029H25.523C27.9104 0.155029 29.8458 2.10025 29.8458 4.49968V25.5003Z" fill="#F7931E"/>
<path d="M14.9614 4.49609C11.9799 4.49609 9.56298 6.92555 9.56298 9.92233C9.56298 12.9192 11.9799 15.3488 14.9614 15.3488C17.943 15.3488 20.3599 12.9192 20.3599 9.92233C20.3599 6.92555 17.943 4.49609 14.9614 4.49609ZM14.9614 12.1656C13.729 12.1656 12.7298 11.1612 12.7298 9.92241C12.7298 8.68361 13.729 7.67932 14.9614 7.67932C16.1939 7.67932 17.193 8.68361 17.193 9.92241C17.193 11.1612 16.1939 12.1656 14.9614 12.1656Z" fill="white"/>
<path d="M16.912 19.657C19.0681 19.2144 20.3602 18.1857 20.4286 18.1305C21.0595 17.6207 21.1608 16.6921 20.6548 16.0564C20.1489 15.4207 19.2274 15.3186 18.5963 15.8283C18.5829 15.8392 17.2048 16.9042 14.9374 16.9058C12.67 16.9042 11.2628 15.8392 11.2495 15.8283C10.6184 15.3186 9.69683 15.4207 9.19092 16.0564C8.68493 16.6921 8.78628 17.6207 9.41721 18.1305C9.4865 18.1865 10.8319 19.242 13.0485 19.6741L9.95927 22.9269C9.39786 23.5135 9.41474 24.4475 9.99696 25.0131C10.2811 25.2892 10.6474 25.4264 11.0133 25.4264C11.397 25.4264 11.7803 25.2754 12.0676 24.9751L14.9375 21.8949L18.0972 24.995C18.6697 25.5709 19.5968 25.57 20.1682 24.9934C20.7396 24.4167 20.7389 23.4826 20.1666 22.9068L16.912 19.657Z" fill="white"/>
<path d="M14.9625 16.8993C14.9589 16.8993 14.966 16.8994 14.9625 16.8994C14.9589 16.8994 14.9661 16.8993 14.9625 16.8993Z" fill="white"/>
</svg>
