<svg width="28" height="30" viewBox="0 0 28 30" fill="none" xmlns="http://www.w3.org/2000/svg">
<path d="M9.79093 8.46295C10.0391 8.4731 10.3136 8.48473 10.5745 9.06454C10.7527 9.46091 11.0527 10.1999 11.2917 10.7887C11.4678 11.2227 11.6109 11.5751 11.6478 11.649C11.7349 11.8231 11.7929 12.0264 11.6768 12.259C11.6594 12.2937 11.6434 12.3265 11.628 12.3578C11.5408 12.5359 11.4767 12.6667 11.329 12.8396C11.2711 12.9072 11.2112 12.98 11.1514 13.0528C11.0312 13.199 10.911 13.3452 10.8066 13.4493C10.632 13.6229 10.4506 13.8115 10.6537 14.1597C10.8569 14.5083 11.5557 15.648 12.5908 16.5708C13.7027 17.5623 14.6687 17.9816 15.1592 18.1945C15.2555 18.2364 15.3335 18.2702 15.3907 18.2989C15.7389 18.473 15.942 18.444 16.1452 18.2113C16.3483 17.9791 17.0152 17.1951 17.2474 16.8468C17.4795 16.4983 17.7117 16.5563 18.0308 16.6724C18.3501 16.7884 20.0618 17.6309 20.4101 17.805C20.478 17.839 20.5414 17.8696 20.6003 17.898C20.8433 18.0153 21.0074 18.0945 21.0775 18.2113C21.1645 18.357 21.1645 19.0538 20.8744 19.8667C20.5842 20.6797 19.1626 21.4638 18.5242 21.5218C18.4628 21.5274 18.4017 21.5346 18.3389 21.542C17.7489 21.6114 17.0042 21.6989 14.346 20.6507C11.0752 19.3608 8.91853 16.1644 8.47297 15.504C8.43643 15.4499 8.4114 15.4128 8.39821 15.3952L8.39433 15.39C8.20658 15.1391 6.97648 13.4952 6.97648 11.7941C6.97648 10.1907 7.76466 9.35016 8.1273 8.96344C8.15208 8.93701 8.17487 8.91271 8.19529 8.89042C8.51426 8.54199 8.89156 8.4548 9.12367 8.4548C9.13639 8.4548 9.14911 8.4548 9.16184 8.45479C9.38105 8.45477 9.59915 8.45474 9.79093 8.46295Z" fill="url(#paint0_linear_3_2826)"/>
<path fill-rule="evenodd" clip-rule="evenodd" d="M1.99599 21.8329C0.759037 19.7244 0.11245 17.3349 0.11245 14.861C0.11245 7.18628 6.38152 0.945312 14.0562 0.945312C17.7952 0.945312 21.2811 2.40716 23.9237 5.02162C26.5382 7.66419 28 11.1501 28 14.8891C28 22.5638 21.7309 28.8048 14.0562 28.8048C11.7229 28.8048 9.41767 28.2425 7.39358 27.118L0 29.0578L1.99599 21.8329ZM4.24498 21.0457L4.5261 21.4674L3.34538 25.7405L7.73092 24.5879L8.15261 24.8409C9.9237 25.9092 11.9759 26.4714 14.0562 26.4714C20.4378 26.4714 25.6386 21.2706 25.6386 14.8891C25.6386 11.7967 24.4297 8.87302 22.2369 6.68025C20.0723 4.51559 17.1486 3.30676 14.0562 3.30676C7.6747 3.30676 2.4739 8.47945 2.4739 14.8891C2.4739 17.0537 3.09237 19.1903 4.24498 21.0457Z" fill="url(#paint1_linear_3_2826)"/>
<defs>
<linearGradient id="paint0_linear_3_2826" x1="0" y1="15.0031" x2="28" y2="15.0031" gradientUnits="userSpaceOnUse">
<stop stop-color="#20B038"/>
<stop offset="1" stop-color="#60D66A"/>
</linearGradient>
<linearGradient id="paint1_linear_3_2826" x1="0" y1="15.0031" x2="28" y2="15.0031" gradientUnits="userSpaceOnUse">
<stop stop-color="#20B038"/>
<stop offset="1" stop-color="#60D66A"/>
</linearGradient>
</defs>
</svg>
