<svg width="30" height="30" viewBox="0 0 30 30" fill="none" xmlns="http://www.w3.org/2000/svg">
<path d="M14.3844 30H15.6336C22.4148 30 25.806 30 27.912 27.894C30.018 25.788 30 22.398 30 15.6336V14.3664C30 7.60318 30 4.21201 27.912 2.10601C25.824 6.03497e-06 22.4148 0 15.6336 0H14.3844C7.60201 0 4.212 6.03497e-06 2.106 2.10601C-1.3411e-06 4.21201 0 7.60078 0 14.3664V15.6336C0 22.398 -1.3411e-06 25.788 2.106 27.894C4.212 30 7.60201 30 14.3844 30Z" fill="#2683ED"/>
<path d="M16.0985 21.6298C9.33404 21.6298 5.22888 16.9366 5.06927 9.13782H8.49527C8.60209 14.8666 11.2085 17.2978 13.2065 17.7934V9.13782H16.4909V14.0806C18.4181 13.867 20.4341 11.6182 21.1133 9.13782H24.3425C23.8253 12.1894 21.6305 14.4382 20.0777 15.3658C21.6305 16.1158 24.1288 18.079 25.0925 21.6298H21.5417C20.7917 19.2562 18.9533 17.4178 16.4909 17.1682V21.6298H16.0985Z" fill="white"/>
</svg>
