<svg width="121" height="18" viewBox="0 0 121 18" fill="none" xmlns="http://www.w3.org/2000/svg">
<path fill-rule="evenodd" clip-rule="evenodd" d="M59.4658 3.83299V0H41.0228V10.9353H55.5V14.2046H41.0228V18H56.7706L59.4273 15.4071V7.1023H44.9501V3.83299H59.4658Z" fill="#D50032"/>
<path fill-rule="evenodd" clip-rule="evenodd" d="M0 0.0375783L18.443 0V18H0V0.0375783ZM3.96583 10.8977V14.1294H7.2386V10.8977H3.96583ZM7.2386 8.53027V10.8601H9.62579V8.53027H7.2386ZM3.96583 6.61378H11.5895V14.1294H14.4387V3.90814H3.96583V6.61378Z" fill="#D50032"/>
<path fill-rule="evenodd" clip-rule="evenodd" d="M109.449 6.75H114.108V11.2875H109.449V6.75ZM102.557 0V18H121V0H102.557ZM106.523 3.8625V14.1H117.034V3.8625H106.523Z" fill="#D50032"/>
<path fill-rule="evenodd" clip-rule="evenodd" d="M88.9376 6.75H93.5965V11.2875H88.9376V6.75ZM82.0456 0V18H100.489V0H82.0456ZM86.0114 3.8625V14.1H96.5228V3.8625H86.0114Z" fill="#D50032"/>
<path fill-rule="evenodd" clip-rule="evenodd" d="M68.4263 6.75H73.0851V11.2875H68.4263V6.75ZM61.5342 0V18H79.9772V0H61.5342ZM65.5 3.8625V14.1H76.0114V3.8625H65.5Z" fill="#D50032"/>
<path fill-rule="evenodd" clip-rule="evenodd" d="M23.3221 0H38.9544V18H34.9886V13.4906H24.4772V18H20.5114V2.78079L23.3221 0ZM34.9886 9.58246V3.87056H24.4772V9.58246H34.9886Z" fill="#D50032"/>
</svg>
