<svg width="214" height="50" viewBox="0 0 214 50" fill="none" xmlns="http://www.w3.org/2000/svg">
<rect y="0.347839" width="214" height="49" rx="5" fill="#D50032"/>
<path fill-rule="evenodd" clip-rule="evenodd" d="M105.342 16.5232V10.3478H75.7721V27.9658H98.9834V33.233H75.7721V39.3478H101.021L105.28 35.1704V21.7904H82.0688V16.5232H105.342Z" fill="white"/>
<path fill-rule="evenodd" clip-rule="evenodd" d="M10 10.4084L39.5698 10.3478V39.3478H10V10.4084ZM16.3584 27.9053V33.1119H21.6057V27.9053H16.3584ZM21.6057 24.0911V27.8447H25.4331V24.0911H21.6057ZM16.3584 21.0034H28.5814V33.1119H33.1496V16.6443H16.3584V21.0034Z" fill="white"/>
<path fill-rule="evenodd" clip-rule="evenodd" d="M185.48 21.2228H192.95V28.5333H185.48V21.2228ZM174.43 10.3478V39.3478H204V10.3478H174.43ZM180.789 16.5708V33.0645H197.642V16.5708H180.789Z" fill="white"/>
<path fill-rule="evenodd" clip-rule="evenodd" d="M152.594 21.2228H160.064V28.5333H152.594V21.2228ZM141.544 10.3478V39.3478H171.114V10.3478H141.544ZM147.903 16.5708V33.0645H164.756V16.5708H147.903Z" fill="white"/>
<path fill-rule="evenodd" clip-rule="evenodd" d="M119.708 21.2228H127.178V28.5333H119.708V21.2228ZM108.658 10.3478V39.3478H138.228V10.3478H108.658ZM115.017 16.5708V33.0645H131.869V16.5708H115.017Z" fill="white"/>
<path fill-rule="evenodd" clip-rule="evenodd" d="M47.3925 10.3478H72.4558V39.3478H66.0974V32.0827H49.2445V39.3478H42.886V14.828L47.3925 10.3478ZM66.0974 25.7863V16.5837H49.2445V25.7863H66.0974Z" fill="white"/>
</svg>
