<svg width="80" height="73" viewBox="0 0 80 73" fill="none" xmlns="http://www.w3.org/2000/svg">
<path d="M3.66826e-06 17.8898H10.769V14.7573H3.96483V10.1441H10.2958V7.03601H3.96483V3.10808H10.769V0H3.66826e-06V17.8898Z" fill="#537BDE"/>
<path d="M76.8715 61.301C78.9447 57.5943 79.9813 52.9445 79.9813 47.3517C79.9813 42.3948 79.0429 38.2056 77.1661 34.7841C75.3112 31.3626 72.5943 28.7635 69.0153 26.987C65.7629 25.3725 61.8616 24.4916 57.3116 24.3443V34.8659C59.114 35.0107 60.6475 35.477 61.912 36.2646C63.4614 37.2077 64.618 38.6443 65.3818 40.5744C66.1675 42.4826 66.5603 44.8952 66.5603 47.8122C66.5603 52.5278 65.6437 56.0371 63.8106 58.34C62.3288 60.184 60.1624 61.2826 57.3116 61.6359V72.3452C61.3708 72.0908 64.9665 71.1948 68.0988 69.6574C71.8741 67.7931 74.7984 65.0076 76.8715 61.301Z" fill="#537BDE"/>
<path fill-rule="evenodd" clip-rule="evenodd" d="M13.7931 58.7918H9.17889C9.05651 58.7918 8.93915 58.8404 8.85262 58.927C8.76608 59.0135 8.71747 59.1308 8.71747 59.2532V63.8672C8.71747 63.9895 8.76608 64.1069 8.85262 64.1934C8.93915 64.28 9.05651 64.3286 9.17889 64.3286H13.7931C13.9155 64.3286 14.0329 64.28 14.1194 64.1934C14.2059 64.1069 14.2545 63.9895 14.2545 63.8672V59.2532C14.2545 59.1308 14.2059 59.0135 14.1194 58.927C14.0329 58.8404 13.9155 58.7918 13.7931 58.7918ZM13.101 59.9453V63.1751H9.87102V59.9453H13.101Z" fill="#537BDE"/>
<path fill-rule="evenodd" clip-rule="evenodd" d="M9.17889 47.7183H13.7931C13.9155 47.7183 14.0329 47.7669 14.1194 47.8534C14.2059 47.94 14.2545 48.0573 14.2545 48.1797V52.7937C14.2545 52.916 14.2059 53.0334 14.1194 53.1199C14.0329 53.2065 13.9155 53.2551 13.7931 53.2551H9.17889C9.05651 53.2551 8.93915 53.2065 8.85262 53.1199C8.76608 53.0334 8.71747 52.916 8.71747 52.7937V48.1797C8.71747 48.0573 8.76608 47.94 8.85262 47.8534C8.93915 47.7669 9.05651 47.7183 9.17889 47.7183ZM13.0982 52.0988V48.8736H9.87379V52.0988H13.0982Z" fill="#537BDE"/>
<path fill-rule="evenodd" clip-rule="evenodd" d="M24.8672 47.7183H20.253C20.1306 47.7183 20.0133 47.7669 19.9267 47.8534C19.8402 47.94 19.7916 48.0573 19.7916 48.1797V52.7937C19.7916 52.916 19.8402 53.0334 19.9267 53.1199C20.0133 53.2065 20.1306 53.2551 20.253 53.2551H24.8672C24.9896 53.2551 25.107 53.2065 25.1935 53.1199C25.2801 53.0334 25.3287 52.916 25.3287 52.7937V48.1797C25.3287 48.0573 25.2801 47.94 25.1935 47.8534C25.107 47.7669 24.9896 47.7183 24.8672 47.7183ZM24.1751 48.8718V52.1016H20.9452V48.8718H24.1751Z" fill="#537BDE"/>
<path fill-rule="evenodd" clip-rule="evenodd" d="M28.3032 72.421C31.6473 72.421 34.3582 69.6963 34.3582 66.3354L34.3582 30.4077C34.3582 27.0468 31.6473 24.3221 28.3032 24.3221L6.05504 24.3221C2.71093 24.3221 0 27.0468 0 30.4077L3.13692e-06 66.3354C3.66826e-06 69.6963 2.71094 72.421 6.05504 72.421H28.3032ZM14.3633 28.6946C13.8485 28.6946 13.4311 29.1141 13.4311 29.6316C13.4311 30.149 13.8485 30.5685 14.3633 30.5685H19.9951C20.51 30.5685 20.9274 30.149 20.9274 29.6316C20.9274 29.1141 20.51 28.6946 19.9951 28.6946H14.3633ZM7.55328 35.2541C7.17679 35.2541 6.87159 35.5608 6.87159 35.9392V36.4429C6.87159 36.8213 7.17679 37.128 7.55328 37.128H26.4925C26.869 37.128 27.1742 36.8213 27.1742 36.4429V35.9392C27.1742 35.5608 26.869 35.2541 26.4925 35.2541H7.55328ZM7.55329 38.6901C7.1768 38.6901 6.87159 38.9969 6.87159 39.3753V39.879C6.87159 40.2574 7.1768 40.5641 7.55329 40.5641H20.2455C20.622 40.5641 20.9272 40.2574 20.9272 39.879V39.3753C20.9272 38.9969 20.622 38.6901 20.2455 38.6901H7.55329ZM21.0236 60.0219V56.9462H17.9459V60.0228H21.0218V63.0985H17.9459V66.1742H21.0236V63.0985H24.0985V66.1742H27.1744V63.0966H24.0985V60.0219H27.1744V56.9462H24.0985V60.0219H21.0236ZM15.4245 57.6219C14.9918 57.1893 14.405 56.9462 13.7931 56.9462H9.17889C8.56701 56.9462 7.98019 57.1893 7.54752 57.6219C7.11485 58.0546 6.87178 58.6414 6.87178 59.2532V63.8672C6.87178 64.479 7.11485 65.0658 7.54752 65.4985C7.98019 65.9311 8.56701 66.1742 9.17889 66.1742H13.7931C14.405 66.1742 14.9918 65.9311 15.4245 65.4985C15.8572 65.0658 16.1002 64.479 16.1002 63.8672V59.2532C16.1002 58.6414 15.8572 58.0546 15.4245 57.6219ZM15.4245 46.5484C14.9918 46.1158 14.405 45.8727 13.7931 45.8727H9.17889C8.56701 45.8727 7.98019 46.1158 7.54752 46.5484C7.11485 46.9811 6.87178 47.5678 6.87178 48.1797V52.7937C6.87178 53.4055 7.11485 53.9923 7.54752 54.4249C7.98019 54.8576 8.56701 55.1006 9.17889 55.1006H13.7931C14.405 55.1006 14.9918 54.8576 15.4245 54.4249C15.8572 53.9923 16.1002 53.4055 16.1002 52.7937V48.1797C16.1002 47.5678 15.8572 46.9811 15.4245 46.5484ZM26.4986 46.5484C26.0659 46.1158 25.4791 45.8727 24.8672 45.8727H20.253C19.6411 45.8727 19.0543 46.1158 18.6216 46.5484C18.189 46.9811 17.9459 47.5678 17.9459 48.1797V52.7937C17.9459 53.4055 18.189 53.9923 18.6216 54.4249C19.0543 54.8576 19.6411 55.1006 20.253 55.1006H24.8672C25.4791 55.1006 26.0659 54.8576 26.4986 54.4249C26.9313 53.9923 27.1744 53.4055 27.1744 52.7937V48.1797C27.1744 47.5678 26.9313 46.9811 26.4986 46.5484Z" fill="#537BDE"/>
<path d="M29.3525 0L22.996 17.8898H18.6731L12.3293 0H16.3325L19.8497 10.6458C19.9094 10.8253 20.0075 11.1638 20.1439 11.6614C20.2803 12.1509 20.4167 12.673 20.5532 13.2277C20.6981 13.7743 20.7962 14.227 20.8473 14.586C20.8985 14.227 20.988 13.7743 21.1159 13.2277C21.2523 12.6811 21.3845 12.1631 21.5124 11.6737C21.6488 11.176 21.7469 10.8334 21.8066 10.6458L25.3493 0H29.3525Z" fill="#537BDE"/>
<path d="M31.7186 17.8898H42.4876V14.7573H35.6835V10.1441H42.0144V7.03601H35.6835V3.10808H42.4876V0H31.7186V17.8898Z" fill="#537BDE"/>
<path d="M62.9896 17.8898H57.9504L49.8162 4.35621H49.701C49.7351 4.91909 49.765 5.48605 49.7906 6.05709L49.8673 7.7702C49.8929 8.33309 49.9185 8.90005 49.944 9.47109V17.8898H46.4013V0H51.4021L59.5236 13.399H59.6131C59.5961 12.8443 59.5747 12.2936 59.5492 11.7471L59.4724 10.1074L59.4213 8.46769V0H62.9896V17.8898Z" fill="#537BDE"/>
<path d="M70.9576 17.8898H74.9225V3.15703H80V0H65.8801V3.15703H70.9576V17.8898Z" fill="#537BDE"/>
<path d="M39.3582 24.3221H52.2882L52.2882 34.8171H39.3583L39.3582 24.3221Z" fill="#537BDE"/>
<path d="M52.2882 39.5112H39.3582V72.4209L52.2882 72.4211V61.7617L52.2882 39.5112Z" fill="#537BDE"/>
</svg>
