<svg width="95" height="62" viewBox="0 0 95 62" fill="none" xmlns="http://www.w3.org/2000/svg">
<path fill-rule="evenodd" clip-rule="evenodd" d="M62 6.22555V0H32.6971V17.7937H55.7435V23.0773H32.6971V29.3028H57.605L61.9662 24.8853L61.9606 11.5654H38.9761V6.22555H62Z" fill="white"/>
<path fill-rule="evenodd" clip-rule="evenodd" d="M76.3523 11.0227H83.7391V18.4095H76.3523V11.0227ZM65.3943 0V29.3028H94.6971V0H65.3943ZM71.7042 6.30991V23.007H88.39V6.30991H71.7042Z" fill="white"/>
<path fill-rule="evenodd" clip-rule="evenodd" d="M4.49559 0H29.3028V29.3028H23.0006V21.9257H6.32754V29.3H0.0252877L0 4.47975L4.49559 0ZM23.0006 15.6102V6.31839H6.32754V15.6102H23.0006Z" fill="white"/>
<path fill-rule="evenodd" clip-rule="evenodd" d="M76.3523 43.6552H83.7391V51.042H76.3523V43.6552ZM65.3943 32.6972V62H94.6887L94.6971 32.6972H65.3943ZM71.7042 39.0071V55.6929H88.39V39.0071H71.7042Z" fill="white"/>
<path fill-rule="evenodd" clip-rule="evenodd" d="M0 32.6972H6.31834V32.714H29.3028V62H0V32.6972ZM6.30709 50.4256V55.666H11.5288V50.4256H6.30709ZM11.5316 46.6022V50.3806H15.2967V46.6022H11.5316ZM6.31553 43.4422H18.4461V55.6688H22.9535C22.9564 50.1332 22.962 44.6258 22.962 39.0452H6.31834L6.31553 43.4422Z" fill="white"/>
<path fill-rule="evenodd" clip-rule="evenodd" d="M43.6551 43.6552H51.042V51.042H43.6551V43.6552ZM32.6971 32.6972V62H61.9915L62 32.6972H32.6971ZM39.0042 39.0071V55.6929H55.6901V39.0071H39.0042Z" fill="white"/>
</svg>
