<svg width="170" height="26" viewBox="0 0 170 26" fill="none" xmlns="http://www.w3.org/2000/svg">
<path fill-rule="evenodd" clip-rule="evenodd" d="M83.547 5.53653V0H57.6353V15.7954H77.9752V20.5177H57.6353V26H79.7603L83.4929 22.2547V10.2589H63.1531V5.53653H83.547Z" fill="white"/>
<path fill-rule="evenodd" clip-rule="evenodd" d="M0 0.0542797L25.9117 0V26H0V0.0542797ZM5.57182 15.7411V20.4092H10.1699V15.7411H5.57182ZM10.1699 12.3215V15.6868H13.5238V12.3215H10.1699ZM5.57182 9.55324H16.2827V20.4092H20.2858V5.64509H5.57182V9.55324Z" fill="white"/>
<path fill-rule="evenodd" clip-rule="evenodd" d="M153.771 9.75H160.317V16.3042H153.771V9.75ZM144.088 0V26H170V0H144.088ZM149.66 5.57917V20.3667H164.428V5.57917H149.66Z" fill="white"/>
<path fill-rule="evenodd" clip-rule="evenodd" d="M124.954 9.75H131.499V16.3042H124.954V9.75ZM115.271 0V26H141.182V0H115.271ZM120.842 5.57917V20.3667H135.611V5.57917H120.842Z" fill="white"/>
<path fill-rule="evenodd" clip-rule="evenodd" d="M96.1361 9.75H102.682V16.3042H96.1361V9.75ZM86.453 0V26H112.365V0H86.453ZM92.0248 5.57917V20.3667H106.793V5.57917H92.0248Z" fill="white"/>
<path fill-rule="evenodd" clip-rule="evenodd" d="M32.7666 0H54.7293V26H49.1575V19.4864H34.3895V26H28.8177V4.0167L32.7666 0ZM49.1575 13.8413V5.59081H34.3895V13.8413H49.1575Z" fill="white"/>
</svg>
