<svg width="20" height="16" viewBox="0 0 20 16" fill="none" xmlns="http://www.w3.org/2000/svg">
<path d="M18.5556 0.666656H1.44445C1.1203 0.666656 0.809421 0.795426 0.58021 1.02464C0.350998 1.25385 0.222229 1.56473 0.222229 1.88888V14.1111C0.222229 14.4353 0.350998 14.7461 0.58021 14.9753C0.809421 15.2046 1.1203 15.3333 1.44445 15.3333H18.5556C18.8797 15.3333 19.1906 15.2046 19.4198 14.9753C19.649 14.7461 19.7778 14.4353 19.7778 14.1111V1.88888C19.7778 1.56473 19.649 1.25385 19.4198 1.02464C19.1906 0.795426 18.8797 0.666656 18.5556 0.666656ZM17.6145 14.1111H2.4589L6.73667 9.68666L5.85667 8.83721L1.44445 13.4022V2.81777L9.04056 10.3772C9.26956 10.6049 9.57934 10.7326 9.90223 10.7326C10.2251 10.7326 10.5349 10.6049 10.7639 10.3772L18.5556 2.62832V13.3228L14.0578 8.82499L13.1961 9.68666L17.6145 14.1111ZM2.24501 1.88888H17.5656L9.90223 9.50943L2.24501 1.88888Z" fill="#15B8FB"/>
</svg>
