<svg width="174" height="41" viewBox="0 0 174 41" fill="none" xmlns="http://www.w3.org/2000/svg">
<path d="M7.022 23.6142H26.0898V40.3207H33.1117V0.680962H26.0898V17.1594H7.022V0.680962H0V40.3207H7.022V23.6142Z" fill="#333833"/>
<path d="M51.2623 30.75H70.1597L74.2141 40.3207H81.6364L64.0524 0.39872H57.5449L39.9609 40.3207H47.155L51.2623 30.75ZM60.6829 8.72243L67.5907 24.5774H53.8312L60.6829 8.72243Z" fill="#333833"/>
<path d="M105.267 41C117.541 41 126.219 31.6557 126.219 20.5C126.219 9.23107 117.656 0 105.382 0C93.1075 0 84.4297 9.34264 84.4297 20.5C84.4297 31.7689 92.9934 41 105.267 41ZM105.267 6.40071C113.203 6.40071 118.855 12.7998 118.855 20.5016C118.855 28.3167 113.317 34.6026 105.382 34.6026C97.4464 34.6026 91.7941 28.2035 91.7941 20.5016C91.7941 12.6866 97.3323 6.40071 105.267 6.40071Z" fill="#333833"/>
<path d="M141.63 12.0071L154.132 30.5792H154.36L166.978 11.8922V40.3205H174V0.680725H166.52L154.36 19.4251L142.2 0.680725H134.722V40.3205H141.63V12.0071Z" fill="#333833"/>
</svg>
