<svg width="22" height="22" viewBox="0 0 22 22" fill="none" xmlns="http://www.w3.org/2000/svg">
<path d="M9.67449 5.72L6.57341 2.14042C6.21591 1.72792 5.56049 1.72975 5.14524 2.14592L2.59508 4.70067C1.83608 5.46059 1.61883 6.589 2.05791 7.49375C4.68106 12.925 9.06129 17.3113 14.4888 19.9421C15.3927 20.3812 16.5202 20.1639 17.2792 19.404L19.8532 16.8254C20.2702 16.4083 20.2712 15.7493 19.855 15.3918L16.2617 12.3072C15.8858 11.9845 15.3019 12.0267 14.9252 12.4043L13.6748 13.6565C13.6108 13.7236 13.5266 13.7678 13.435 13.7824C13.3434 13.797 13.2496 13.7811 13.1679 13.7372C11.1242 12.5603 9.42882 10.8627 8.25458 8.81742C8.2106 8.73561 8.19468 8.64163 8.20925 8.54989C8.22382 8.45816 8.26808 8.37374 8.33524 8.30958L9.58191 7.062C9.95958 6.6825 10.0008 6.09584 9.67449 5.71909V5.72Z" stroke="#15B8FB" stroke-width="1.5" stroke-linecap="round" stroke-linejoin="round"/>
</svg>
