<svg width="22" height="22" viewBox="0 0 22 22" fill="none" xmlns="http://www.w3.org/2000/svg">
<path d="M9.67451 5.71999L6.57343 2.1404C6.21593 1.7279 5.56051 1.72974 5.14526 2.1459L2.59509 4.70065C1.83609 5.46057 1.61884 6.58899 2.05793 7.49374C4.68108 12.925 9.0613 17.3113 14.4888 19.9421C15.3927 20.3812 16.5202 20.1639 17.2792 19.404L19.8532 16.8254C20.2703 16.4083 20.2712 15.7492 19.855 15.3917L16.2617 12.3072C15.8858 11.9845 15.3019 12.0267 14.9252 12.4043L13.6748 13.6565C13.6108 13.7236 13.5266 13.7678 13.435 13.7824C13.3434 13.7969 13.2496 13.7811 13.1679 13.7372C11.1242 12.5602 9.42884 10.8627 8.25459 8.8174C8.21062 8.73559 8.19469 8.64161 8.20927 8.54988C8.22384 8.45815 8.2681 8.37373 8.33526 8.30957L9.58193 7.06199C9.95959 6.68249 10.0008 6.09582 9.67451 5.71907V5.71999Z" stroke="#15B8FB" stroke-width="1.5" stroke-linecap="round" stroke-linejoin="round"/>
</svg>
